PathFileType	4	(X/Y/Z)	output.trc
DataRate	CameraRate	NumFrames	NumMarkers	Units	OrigDataRate	OrigDataStartFrame	OrigNumFrames
200	200	4	66	mm	200	74	295
Frame#	Time			LASI			RASI			RSACR			LSACR			USACR			LBAR			RBAR			RHEE			RMT1			RMT5			RMT2			LHEE			LMT1			LMT5			LMT2			LMMAL			LMFC			LLFC			LLMAL			LTIB4			LTIB2			LTIB3			LTIB1			RMMAL			RMFC			RLFC			RLMAL			RTIB1			RTIB2			RTIB3			RTHI1			RTHI4			RTHI3			RTHI2			LTHI1			LTHI4			LTHI3			LTHI2			FHD			LBHD			RBHD			C7			T10			CLAV			LSHO			RSHO			LRAD			LUL			LRFIN			RRAD			RUL			RUFIN			RLEP			RMEP			LLEP			LMEP			LDUPA			LMUPA			LUUPA			RDUPA			RUUPA			RMUPA			RKJC			LKJC			LAKJC			RAKJC
		X1	Y1	Z1	X2	Y2	Z2	X3	Y3	Z3	X4	Y4	Z4	X5	Y5	Z5	X6	Y6	Z6	X7	Y7	Z7	X8	Y8	Z8	X9	Y9	Z9	X10	Y10	Z10	X11	Y11	Z11	X12	Y12	Z12	X13	Y13	Z13	X14	Y14	Z14	X15	Y15	Z15	X16	Y16	Z16	X17	Y17	Z17	X18	Y18	Z18	X19	Y19	Z19	X20	Y20	Z20	X21	Y21	Z21	X22	Y22	Z22	X23	Y23	Z23	X24	Y24	Z24	X25	Y25	Z25	X26	Y26	Z26	X27	Y27	Z27	X28	Y28	Z28	X29	Y29	Z29	X30	Y30	Z30	X31	Y31	Z31	X32	Y32	Z32	X33	Y33	Z33	X34	Y34	Z34	X35	Y35	Z35	X36	Y36	Z36	X37	Y37	Z37	X38	Y38	Z38	X39	Y39	Z39	X40	Y40	Z40	X41	Y41	Z41	X42	Y42	Z42	X43	Y43	Z43	X44	Y44	Z44	X45	Y45	Z45	X46	Y46	Z46	X47	Y47	Z47	X48	Y48	Z48	X49	Y49	Z49	X50	Y50	Z50	X51	Y51	Z51	X52	Y52	Z52	X53	Y53	Z53	X54	Y54	Z54	X55	Y55	Z55	X56	Y56	Z56	X57	Y57	Z57	X58	Y58	Z58	X59	Y59	Z59	X60	Y60	Z60	X61	Y61	Z61	X62	Y62	Z62	X63	Y63	Z63	X64	Y64	Z64	X65	Y65	Z65	X66	Y66	Z66
73	0.365000	133.632553	762.539795	918.034180	129.382858	984.887512	918.657532	309.116638	912.626709	950.416626	308.286011	852.700134	953.627197	297.390808	882.578674	966.758850	1270.813354	-346.498596	26.296663	1226.434814	1876.978394	26.270760	323.051331	1019.655518	39.833790	128.148178	1043.326416	43.456390	165.075012	1113.679932	34.821560	140.179230	1079.984863	42.679771	326.262787	745.157715	45.844299	134.387711	736.459351	46.344261	169.957275	662.796509	33.447819	143.163467	698.041809	45.934132	276.690399	778.680847	72.956490	232.973389	829.264404	456.901031	219.409149	721.602051	454.018097	278.801880	700.996399	69.165504	290.315613	691.573547	209.668045	313.955170	691.562622	271.014679	263.519592	684.649475	268.214203	301.571167	687.341614	314.347137	275.164795	994.105347	68.383209	235.352097	935.551575	446.611450	220.671967	1041.449829	461.380646	284.673981	1068.604370	72.259132	257.167358	1082.838501	319.334534	307.615509	1077.279785	314.038208	276.646332	1081.428467	256.199219	241.855499	1060.246704	784.001465	243.009583	1064.706543	635.274597	191.540771	1066.844971	637.119080	219.342377	1070.311035	697.130432	238.542740	699.066772	778.983154	236.416412	694.917114	646.528198	185.849564	693.651917	637.491516	200.292130	689.608643	701.237671	129.893417	775.106689	1592.942871	240.648804	786.064758	1575.965820	252.260101	909.557129	1571.543579	262.476227	857.665710	1391.419556	285.381439	877.691956	1007.692017	139.908997	872.723877	1328.518677	243.792313	724.743286	1380.886475	236.071991	986.674072	1397.054810	163.943451	222.496704	1357.762817	204.552460	222.097916	1353.265991	150.502396	130.601028	1337.120728	240.591568	1500.502930	1389.542480	287.480804	1499.626953	1383.424683	234.859756	1590.649536	1391.775391	292.880646	1271.181641	1330.169800	254.617157	1271.715820	1296.579468	219.987106	453.862488	1299.999756	179.171539	466.660767	1277.562988	236.112320	505.813385	1353.760376	200.230774	536.351257	1371.344238	237.251602	584.992249	1362.257935	265.788422	1205.625000	1382.549194	256.496124	1143.911743	1384.281128	215.615646	1212.132446	1385.538818	228.012024	988.500732	453.996033	226.191269	775.433228	455.459564	277.746155	739.838623	71.060997	279.919373	1031.354858	70.321167
74	0.370000	133.600616	762.532227	918.023315	129.359985	984.893555	918.657166	309.091827	912.617737	950.413940	308.248230	852.706116	953.627197	297.358673	882.576599	966.762878	1270.825195	-346.516785	26.308435	1226.435791	1876.975220	26.273396	323.052612	1019.657349	39.825577	128.148026	1043.334473	43.446686	165.070480	1113.677734	34.821232	140.178024	1079.981445	42.674744	326.262695	745.164124	45.847076	134.379456	736.456482	46.339611	169.955109	662.794434	33.465115	143.167282	698.046204	45.923897	276.692444	778.681763	72.960945	232.945419	829.267761	456.900696	219.388901	721.601624	454.012268	278.791718	700.988464	69.161896	290.298950	691.576477	209.667068	313.984589	691.235901	271.361908	263.515930	684.653931	268.231049	301.577179	687.321594	314.368317	275.164215	994.115540	68.380508	235.329987	935.551147	446.606506	220.648956	1041.456177	461.380341	284.663452	1068.607178	72.255356	257.148285	1082.849976	319.338867	307.605011	1077.278442	314.057495	276.625641	1081.433594	256.197968	241.840500	1060.247681	783.996887	243.035873	1064.852539	635.408203	191.515396	1066.857544	637.120422	219.311203	1070.313843	697.112915	238.522690	699.065918	778.974060	236.465210	695.490356	646.579285	185.823380	693.689270	637.482422	200.240036	689.608643	701.217285	129.887131	775.112305	1592.944702	240.650009	786.049744	1575.955811	252.272461	909.539429	1571.542969	262.481842	857.676697	1391.414307	285.351959	877.692566	1007.682373	139.910172	872.727173	1328.524658	243.797974	724.754333	1380.906494	236.077545	986.680786	1397.051270	163.955109	222.496750	1357.746948	204.567184	222.104126	1353.247314	150.513916	130.611694	1337.096558	240.624512	1500.506714	1389.504272	287.501740	1499.636353	1383.395142	234.883499	1590.660645	1391.730469	292.885803	1271.174805	1330.157715	254.617279	1271.712280	1296.567383	219.980164	453.878235	1299.995850	179.173630	466.662598	1277.557373	236.124863	505.812500	1353.771851	200.222610	536.375610	1371.350830	237.310638	584.979248	1362.406616	265.795471	1205.604126	1382.578247	256.496307	1143.911011	1384.267944	215.618286	1212.137329	1385.533447	227.989471	988.503662	453.993408	226.167160	775.434692	455.456482	277.742065	739.835083	71.061417	279.913818	1031.361328	70.317932
75	0.375000	133.578537	762.536926	918.020996	129.328812	984.888611	918.657593	309.062744	912.613708	950.415527	308.231262	852.689331	953.614563	297.325989	882.573120	966.760376	1270.809814	-346.487823	26.280643	1226.430420	1876.972168	26.275360	323.053864	1019.663086	39.831631	128.145035	1043.332520	43.449753	165.062073	1113.687744	34.825222	140.181976	1079.983521	42.678322	326.264740	745.170776	45.845737	134.382019	736.459656	46.340508	169.955460	662.792175	33.456970	143.167923	698.050537	45.930328	276.690857	778.681030	72.962502	232.953766	829.259094	456.887177	219.376389	721.608643	454.009430	278.802826	700.990723	69.163292	290.287292	691.576904	209.671356	313.978760	691.239685	271.371887	263.487640	684.653687	268.227203	301.564178	687.328064	314.375488	275.157654	994.113586	68.376945	235.307297	935.554199	446.613159	220.626801	1041.453003	461.379303	284.672638	1068.608765	72.254074	257.136414	1082.855469	319.327942	307.581055	1077.283691	314.049255	276.608612	1081.438965	256.202667	241.787415	1060.247559	783.990906	242.954636	1064.688110	635.260864	191.493195	1066.864502	637.107422	219.318710	1070.303467	697.114502	238.490189	699.070862	778.974243	236.502426	694.762878	646.809814	185.800781	693.698303	637.481995	200.233231	689.606262	701.213806	129.876297	775.111511	1592.942993	240.657837	786.034668	1575.952881	252.288895	909.534668	1571.537476	262.510681	857.661316	1391.396362	285.326324	877.684570	1007.674683	139.927185	872.736206	1328.528076	243.812454	724.749207	1380.902710	236.072632	986.685852	1397.044678	163.978851	222.502731	1357.731079	204.567078	222.103836	1353.220825	150.525162	130.606003	1337.063965	240.650848	1500.515015	1389.461182	287.534058	1499.617798	1383.341553	234.931076	1590.678345	1391.670410	292.886902	1271.174927	1330.136841	254.608154	1271.716309	1296.549927	219.997833	453.881439	1299.990112	179.180603	466.674530	1277.547729	236.139465	505.822845	1353.753662	200.236313	536.363220	1371.346191	237.352127	584.954285	1362.432373	265.801178	1205.615723	1382.523926	256.487946	1143.917480	1384.255005	215.628525	1212.142822	1385.513916	227.967041	988.503601	453.996216	226.165070	775.433838	455.448303	277.746826	739.835876	71.062897	279.915161	1031.361206	70.315506
76	0.380000	133.545700	762.530518	918.018494	129.299713	984.896179	918.657532	309.032196	912.620239	950.409424	308.197083	852.698853	953.621033	297.297821	882.568115	966.752625	1270.844482	-346.468201	26.313732	1226.426514	1876.955200	26.265860	323.048096	1019.661621	39.832092	128.137802	1043.338745	43.457611	165.063293	1113.688599	34.822170	140.175156	1079.984863	42.680344	326.251373	745.177185	45.839382	134.378174	736.462952	46.339935	169.957458	662.803955	33.450630	143.165604	698.047607	45.926487	276.698822	778.680603	72.961227	232.909409	829.260437	456.885559	219.362793	721.611023	454.012665	278.791229	700.994568	69.153526	290.289215	691.584351	209.669556	313.874817	691.399048	271.265900	263.489136	684.656067	268.221619	301.509949	687.354858	314.374573	275.159668	994.117798	68.381241	235.283661	935.553101	446.609772	220.619522	1041.451660	461.375916	284.673065	1068.613525	72.260406	257.127167	1082.858032	319.328522	307.567657	1077.285156	314.055054	276.594238	1081.432007	256.198181	241.776535	1060.250854	783.997559	242.983521	1064.841797	635.422241	191.473221	1066.885986	637.120544	219.295776	1070.292480	697.087402	238.440781	699.068420	778.970764	236.442215	695.391846	646.565735	185.791611	693.690857	637.474182	200.205872	689.623962	701.188965	129.874863	775.119385	1592.947876	240.646439	786.027283	1575.974854	252.309250	909.517822	1571.540283	262.509033	857.662720	1391.386841	285.298004	877.683167	1007.670776	139.939865	872.730469	1328.524170	243.798233	724.760071	1380.871460	236.079849	986.693481	1397.040161	163.995026	222.504181	1357.711060	204.571106	222.116699	1353.203613	150.536636	130.614319	1337.025879	240.673767	1500.523926	1389.420532	287.563019	1499.623291	1383.315430	234.944595	1590.687866	1391.614990	292.889862	1271.168213	1330.123901	254.646103	1271.696777	1296.532593	219.995773	453.899902	1299.982544	179.188339	466.682831	1277.551880	236.142380	505.823242	1353.750488	200.256531	536.371094	1371.335327	237.341812	584.992432	1362.230591	265.803741	1205.608643	1382.546143	256.495148	1143.916748	1384.249634	215.627472	1212.148682	1385.505981	227.951599	988.502380	453.992859	226.136108	775.435730	455.449097	277.745026	739.837585	71.057373	279.916382	1031.365723	70.320824
